<svg id="Layer_1" data-name="Layer 1" xmlns="http://www.w3.org/2000/svg" viewBox="0 0 512 512"><title>wordpress-handdrawn</title><g style="isolation:isolate"><path d="M188.38,148.22c-.2.36,13,7.52,13,7.52" fill="none" stroke="#00ace4" stroke-linecap="round" stroke-linejoin="round" stroke-width="9.97"/><path d="M150.65,112.33c-.38.66,16.3,9.4,16.28,9.42-.58,1-15.12,4-15.12,4-.22.37,8.32,4.43,8.15,4.72-.29.49-10.76,4.9-11.14,5.56-1.5,2.6,55.8,32.3,55.8,32.3s-65.27-29-67.14-25.76c-2.22,3.86,80.86,46.29,80.64,46.67-1.68,2.92-91.64-49.15-95.39-42.62,0,0,97.07,48.46,93.73,54.25-1,1.7-87.55-43.66-89.69-39.94-1.44,2.51,100.53,52.95,98.26,56.87s-98.13-44.2-98.13-44.2c-2.74,4.76,111.24,53.56,106.56,61.68L130.82,189.5c-4.45,7.72,103,59.64,103,59.64-4.13,7.17-94.13-41.45-94.54-40.74,0,0,89.49,49.85,88.64,51.31-1.89,3.28-77.49-34.94-78.79-32.68-.31.55,74.21,42.95,74.21,42.95-.6,1-70.89-33.23-73.51-28.69-2.52,4.38,75.67,42.86,75.27,43.56l-68.3-27.14c-.6,1,62.71,32,60.84,35.22-.08.15-55.72-21.79-56.34-20.72-1.51,2.62,51.08,29.55,51.07,29.56s-50-15.78-50-15.78c-.26.45,47.85,25,46.67,27-.63,1.09-32.83-8.07-34-6.1-.93,1.61,33.87,19.6,33.87,19.6-.61,1.07-32.2-7.54-32.79-6.51-.69,1.2,30.15,15.47,29.29,17,0,0-20.57,2.14-20.57,2.14-.63,1.09,17.79,9.29,17.36,10s-11.75,6-12.22,6.83c-.23.4,9.93,5.75,9.93,5.75" fill="none" stroke="#00ace4" stroke-linecap="round" stroke-linejoin="round" stroke-width="9.97"/><path d="M332.71,109.23c-1.3,2.26,34.94,19.47,34.61,20,0,.05-24.44-2.27-24.54-2.11l28.65,16.58c-.68,1.18-38.3-10.39-38.3-10.39-1.46,2.54,52.91,27.56,51.59,29.86-2.51,4.37-57.56-20.86-57.56-20.86-.54.94,70,36.63,68.35,39.56-1.08,1.88-79.42-40.82-83.07-34.48,0,0,96.54,46.55,92.51,53.55-.57,1-88.73-43.32-91.12-39.17-1.28,2.22,94.15,52,93.06,53.86C403.16,222.19,314,174,314,174c-1.07,1.86,93.34,52.21,92.56,53.57-1,1.82-87.61-41.91-89.35-38.89-1.32,2.29,98.4,48.23,94.63,54.77-2.56,4.44-84.53-37.1-85.15-36,0,0,88.51,45.11,85.86,49.7-2.48,4.31-72.64-33.32-75.18-28.9-.26.45,75.32,42.65,74.91,43.36-3.16,5.49-69.09-29.51-70.61-26.86-.59,1,67.35,39,67.35,39-1,1.67-59-27.23-61.41-23-2.6,4.51,55,31.86,55,31.86-1.26,2.18-52.93-19.31-54-17.4-1.22,2.12,53.9,28.61,52.78,30.55l-50.66-15.13s41.59,20.71,40.14,23.23c-.63,1.1-24.15-2.32-25-.88,0,0,30.1,14.84,29,16.78-.44.76-29-4.33-29.75-3,0,0,22.28,12.71,22.2,12.85s-13,4.79-13.15,5S388.73,353,388.73,353" fill="none" stroke="#00ace4" stroke-linecap="round" stroke-linejoin="round" stroke-width="9.97"/><path d="M341.71,35.93S400.07,67.19,399,69.08c-2.43,4.23-108.78-51.39-110.13-49-1,1.66,97,51.84,95.12,55.05-1.44,2.5-114.09-54.52-114.1-54.49-5,8.69,110.88,60.55,109.32,63.27-4.17,7.24-132.27-70-134.55-66.08L375.31,93.42C374,95.75,222.77,19.74,222.77,19.74l144.92,83.88c-.26.45-151.58-86.53-156.19-78.52-1.94,3.37,153.23,88.65,153.21,88.68S194.14,22.43,192.34,25.56c0,0,140,70.93,135.66,78.52-3.69,6.4-145.62-87.23-152.1-76-5.82,10.11,134.7,68.25,130.51,75.54-2.35,4.07-137.34-70.35-138.82-67.79L281,101.52c-5.76,10-131.64-63.18-131.64-63.18-.34.59,117.27,64.27,115.71,67-3,5.13-125.61-60.88-126.63-59.12-4.32,7.51,109,54.73,105.37,61C240,113.83,130.27,47,127.21,52.34c-1.65,2.86,93.78,48.11,91.12,52.74,0,0-97.45-51.12-100.59-45.66-1.65,2.86,77.34,36.93,74,42.8C189.21,106.53,115.45,70,115.45,70c-2.72,4.73,64.87,37.55,64.87,37.55-2.9,5-79.58-39.36-82.57-34.19-1.74,3,67.08,34.1,65,37.64-.86,1.49-70.18-34.21-72.93-29.45-.64,1.12,37,18.72,35.86,20.75-.72,1.25-39.11-10.82-40.26-8.82-.62,1.08,16.31,8.47,15.89,9.2,0,.07-22.75-3-23.4-1.86-.2.34,9.43,5.06,9.26,5.36" fill="none" stroke="#00ace4" stroke-linecap="round" stroke-linejoin="round" stroke-width="9.97"/><path d="M259,321.85s9.06,5.14,9,5.22c-.37.65-17.69,4-17.9,4.33s20.76,11.37,20.48,11.85-18.37.91-18.37.91c-1,1.8,25.9,14.24,25.58,14.8-1,1.65-32.81-8.39-33.33-7.49l40,23.13c-.36.62-43.69-10.67-43.69-10.67L287.48,391c-.07.12-43.92-16.43-45.17-14.26-.63,1.1,49,28.33,49,28.34s-56.46-22.44-57-21.46c0,0,65.21,33.19,63.25,36.61-1.62,2.82-66.56-33.07-69.41-28.12-3.26,5.66,79.22,40.41,76.87,44.49-1.24,2.15-74.54-32.39-75.32-31l76,44c-3.64,6.31-84.89-36.12-84.89-36.12-.28.48,96.63,53,95.37,55.2-2.24,3.9-96.66-43.56-97.43-42.22-4.24,7.36,107,53.75,103.47,59.89s-104.64-54.4-107.45-49.52c-1.62,2.81,92.29,47.35,89.67,51.9,0,0-89.61-46-92.49-41-1.62,2.82,76.21,36.39,72.87,42.18-2.25,3.91-69.62-28.35-69.62-28.35-2.41,4.18,57.74,33.42,57.74,33.42-2.42,4.2-67-30.91-69.46-26.6-1,1.7,39.26,20.05,38.1,22.05-.47.81-39.77-13.71-41.26-11.13-.23.41,16.63,8.64,16.21,9.38" fill="none" stroke="#00ace4" stroke-linecap="round" stroke-linejoin="round" stroke-width="9.97"/><path d="M27.1,198.25s8.79,5,8.75,5.06c-.35.6-16.08,4.94-16.27,5.27s19.14,10.51,18.9,10.94-15.14,2.78-15.15,2.78c-.88,1.53,22.61,12.45,22.33,12.93-.79,1.38-27.69-5.23-28.13-4.48l34.73,20.1c-.28.49-35-5.65-35-5.65l38.09,22c-.05.09-32.29-8.88-33.19-7.33-.48.84,37,21.43,37,21.44S18.26,268.29,17.85,269c0,0,49,25,47.59,27.55-1.12,1.95-47-19.72-49-16.3-2.29,4,58.13,29.83,56.48,32.69-.79,1.37-48.85-16.86-49.34-16l50.07,29c-2.16,3.75-52.1-17.14-52.1-17.14-.17.3,63.36,34.84,62.57,36.21-1.24,2.15-55.18-18.75-55.61-18C26,331.34,96,361.14,93.91,364.8c-1.89,3.28-58.2-24.51-59.71-21.89-1.1,1.91,65,33.52,63.26,36.62,0,0-53.06-22-54.71-19.11-1.27,2.21,60.54,29,57.93,33.53-1.29,2.25-41.41-12-41.41-12-2.2,3.82,53,30.69,53,30.69-1.51,2.63-43.38-15.11-44.93-12.4-1.13,2,44.61,22.76,43.28,25.05-.18.31-15.52,2.44-16.1,3.44-.4.69,24.84,12.7,24.11,14" fill="none" stroke="#00ace4" stroke-linecap="round" stroke-linejoin="round" stroke-width="9.97"/><path d="M484.5,207.46s8,4.59,8,4.64c-.34.59-15.54,5.26-15.73,5.59-.08.13,14.39,8,14.25,8.24s-11.71,4.77-11.71,4.77c-.52.9,14.83,8.21,14.67,8.49-.62,1.07-21.86-1.64-22.2-1l23.83,13.79c-.22.38-27.53-1.32-27.53-1.32L492,264.47c0,.06-21.76-2.08-22.35-1.05-.27.47,19.85,11.48,19.85,11.49s-27.65-5.07-27.92-4.61c0,0,28.76,14.81,28,16.19s-32.81-10-34.15-7.7c-1.22,2.12,35.07,18.26,34.19,19.79-.51.88-32.34-6.89-32.65-6.34L482.5,307c-1.38,2.4-34.4-6.9-34.4-6.9-.09.15,36.23,20,35.83,20.74-.82,1.42-37.64-8.27-37.92-7.78-1.27,2.21,38.6,19.88,37.53,21.72C482.26,337,443,321.63,442,323.41c-.55,1,36.25,18.91,35.36,20.47,0,0-37.09-11.5-38.21-9.55-.65,1.12,32.72,15.87,31.4,18.17-.86,1.48-28.17-4.36-28.17-4.36-1.17,2,29.75,17.22,29.75,17.22-1.39,2.41-40.07-12.9-41.5-10.42-.7,1.21,28.82,14.79,28,16.21-.35.6-30.09-7.22-31.19-5.3-.47.82,28.47,14.49,27.61,16-.48.83-26.39-2.55-27.14-1.23s19.2,10,18.71,10.83c0,.07-22.16-2.61-22.8-1.51s21.8,11.27,21.22,12.28c-.88,1.53-25-1.13-25.5-.3-.09.15,12.3,6.64,12.09,7L410,411c-.42.72,13.53,7.68,13.47,7.79-.37.65-16.09,1.93-16.38,2.44-.09.15,10.89,6.24,10.86,6.29" fill="none" stroke="#00ace4" stroke-linecap="round" stroke-linejoin="round" stroke-width="9.97"/></g><path d="M413.14,301.73a142.17,142.17,0,0,0,6.35-20.53c1.62-6.9,2.87-14,3.94-21.14a119,119,0,0,0-2.7-46.55,154,154,0,0,0-18.8-42.78c-3.87-6.22-7.78-12.4-11.27-18.75a109.49,109.49,0,0,1-8.79-20c-4.68-15.68-2.42-30.33,5-41.34s20.3-18.54,36.56-19.55C368.7,19.29,295.07-1,225.09,7.63S88.65,53.93,48.59,118a17.71,17.71,0,0,0,4.72,1.1,48.42,48.42,0,0,0,4.86.16c11.62,0,23.15-.49,34.63-1.1s23.08-1.34,34.59-1.79c3.86-.41,7,.15,9.23,1.51,2.7,1.64,4.15,4.43,4.15,8.08a8.32,8.32,0,0,1-3.6,7.75,16.1,16.1,0,0,1-8.5,2.4c-2.85.36-5.69.67-8.49,1l-8.5.86c-4.33.43-6.59.45-7.43,1.29s-.15,2.79,1.45,7.23q19.76,59.54,39.62,119,19.93,59.63,39.9,118.9c1.38,4.05,2.76,8.06,4.16,12.14s2.73,8,4.15,12.15c.43-.44.81-.81,1.11-1.15a2.27,2.27,0,0,0,.71-1.39c8.69-26,17.37-52.28,26.08-78.56s17.39-52.47,26.15-78.53a9.8,9.8,0,0,0,.68-3.62,11,11,0,0,0-.68-3.63c-6-16.38-12.09-32.9-18.1-49.42s-12-33.09-17.86-49.51a7.53,7.53,0,0,0-2.4-3.75,6.87,6.87,0,0,0-4.28-1.13c-3.5-.28-7-.55-10.4-.84s-6.93-.61-10.39-1a11.68,11.68,0,0,1-8.15-4.58,10,10,0,0,1,4.58-14.71,15.27,15.27,0,0,1,7.9-.45c13.37.82,26.64,1.67,39.92,2.17s26.58.63,40,0c8-.63,15.81-1.08,23.66-1.43s15.74-.57,23.7-.75c3.55-.43,6.35.18,8.38,1.58a9.67,9.67,0,0,1,3.91,7.48,8.65,8.65,0,0,1-2.87,7.79,12.9,12.9,0,0,1-8,2.9c-3.07.36-6,.68-9,1s-6,.57-9,.85c-4.25.43-6.51.45-7.44,1.24s-.42,2.76.92,7.27q17.63,51.9,34.89,103.81t34.89,103.81c3,9,5.94,17.77,8.93,26.76,2.88,8.65,5.86,17.45,9.13,26.69a34.6,34.6,0,0,1,1.17-3.49c.49-1.26,1-2.27,1.37-3.39,4.88-16.59,9.58-33.15,14.49-49.65S407.45,318.11,413.14,301.73Z" fill="none" stroke="#0072bf" stroke-width="11.39"/><path d="M283,339.42c-3.71-10.24-7.47-20.53-11.33-31.14-3.65-10-7.39-20.35-11.25-31.18-12.56,36.17-24.86,71.67-37,106.94-12.33,35.76-24.53,71.28-36.73,107-.7,2-.76,3.42-.2,4.43s1.88,1.71,3.82,2.27a262.26,262.26,0,0,0,72.07,8.45,245.21,245.21,0,0,0,71.43-12.6c1.89-.67,3.14-1.14,3.64-2.05s.29-2-.56-4.1c-9.11-24.86-18-49.48-26.87-74S292.16,364.12,283,339.42Z" fill="none" stroke="#0072bf" stroke-width="11.39"/><path d="M147.46,480.92q-29.68-82-59.33-163.3T28.53,154.42C1.15,213.12-.23,281.18,21.84,341.84,43,399.89,85.58,451.15,147.46,480.92Z" fill="none" stroke="#0072bf" stroke-width="11.39"/><path d="M505.13,241.21A238.7,238.7,0,0,0,477.66,141c-1.67.33-2.18,1-2.23,1.83s.5,2.08.6,3.05a222.72,222.72,0,0,1-2.26,46.73,241.62,241.62,0,0,1-11.65,45.31q-17.19,49.27-34.11,98.4t-34.2,98.37c-2.22,6.19-4.29,12.39-6.4,18.72-2,6.08-4.05,12.3-6.26,18.77A251.52,251.52,0,0,0,409,453.57a221.58,221.58,0,0,0,24.91-22.46q38-39.69,55.94-87.29T505.13,241.21Z" fill="none" stroke="#0072bf" stroke-width="11.39"/></svg>